HIERARCHY
ROOT Hips
{
	OFFSET 0.000000 89.005402 0.000000
	CHANNELS 6 Xposition Yposition Zposition Xrotation Yrotation Zrotation
	JOINT Spine
	{
		OFFSET 0.116900 10.681000 0.373400
		CHANNELS 3 Xrotation Yrotation Zrotation
		JOINT Spine1
		{
			OFFSET 0.000000 13.840401 0.053500
			CHANNELS 3 Xrotation Yrotation Zrotation
			JOINT Spine2
			{
				OFFSET 0.000000 14.712700 -0.366200
				CHANNELS 3 Xrotation Yrotation Zrotation
				JOINT Neck
				{
					OFFSET 0.000000 35.415497 -3.314200
					CHANNELS 3 Xrotation Yrotation Zrotation
					JOINT Head
					{
						OFFSET 0.000000 16.899200 1.218300
						CHANNELS 3 Xrotation Yrotation Zrotation
						JOINT HeadTop_End
						{
							OFFSET 0.000000 22.206207 2.192500
							CHANNELS 3 Xrotation Yrotation Zrotation
							End Site
							{
								OFFSET 0.000000 22.314178 0.000000
							}
						}
					}
				}
				JOINT LeftShoulder
				{
					OFFSET 12.896400 26.716293 -4.548400
					CHANNELS 3 Xrotation Yrotation Zrotation
					JOINT LeftArm
					{
						OFFSET 19.027000 -4.857010 -1.718400
						CHANNELS 3 Xrotation Yrotation Zrotation
						JOINT LeftForeArm
						{
							OFFSET 24.179897 0.000000 0.000000
							CHANNELS 3 Xrotation Yrotation Zrotation
							JOINT LeftHand
							{
								OFFSET 27.156403 0.000000 0.000000
								CHANNELS 3 Xrotation Yrotation Zrotation
								JOINT LeftHandIndex1
								{
									OFFSET 16.441200 0.000000 0.000000
									CHANNELS 3 Xrotation Yrotation Zrotation
									JOINT LeftHandIndex2
									{
										OFFSET 4.821899 0.000000 0.000000
										CHANNELS 3 Xrotation Yrotation Zrotation
										JOINT LeftHandIndex3
										{
											OFFSET 6.386497 0.000000 0.000000
											CHANNELS 3 Xrotation Yrotation Zrotation
											JOINT LeftHandIndex4
											{
												OFFSET 5.188988 0.000000 0.000000
												CHANNELS 3 Xrotation Yrotation Zrotation
												End Site
												{
													OFFSET -0.178703 5.185913 0.000177
												}
											}
										}
									}
								}
								JOINT LeftHandThumb1
								{
									OFFSET 6.534897 -5.032593 5.900300
									CHANNELS 3 Xrotation Yrotation Zrotation
									JOINT LeftHandThumb2
									{
										OFFSET 3.818176 -2.204422 2.204423
										CHANNELS 3 Xrotation Yrotation Zrotation
										JOINT LeftHandThumb3
										{
											OFFSET 3.252098 -1.877594 1.877601
											CHANNELS 3 Xrotation Yrotation Zrotation
											JOINT LeftHandThumb4
											{
												OFFSET 5.251778 -3.032120 3.032117
												CHANNELS 3 Xrotation Yrotation Zrotation
												End Site
												{
													OFFSET 0.000023 6.780014 0.000000
												}
											}
										}
									}
								}
							}
						}
					}
				}
				JOINT RightShoulder
				{
					OFFSET -12.896300 26.716293 -4.548400
					CHANNELS 3 Xrotation Yrotation Zrotation
					JOINT RightArm
					{
						OFFSET -19.027000 -4.857010 -1.718400
						CHANNELS 3 Xrotation Yrotation Zrotation
						JOINT RightForeArm
						{
							OFFSET -24.179897 0.000000 0.000000
							CHANNELS 3 Xrotation Yrotation Zrotation
							JOINT RightHand
							{
								OFFSET -27.156403 0.000000 0.000000
								CHANNELS 3 Xrotation Yrotation Zrotation
								JOINT RightHandThumb1
								{
									OFFSET -6.591202 -4.852203 5.988100
									CHANNELS 3 Xrotation Yrotation Zrotation
									JOINT RightHandThumb2
									{
										OFFSET -3.818176 -2.204422 2.204423
										CHANNELS 3 Xrotation Yrotation Zrotation
										JOINT RightHandThumb3
										{
											OFFSET -3.252098 -1.877594 1.877601
											CHANNELS 3 Xrotation Yrotation Zrotation
											JOINT RightHandThumb4
											{
												OFFSET -5.251778 -3.032120 3.032117
												CHANNELS 3 Xrotation Yrotation Zrotation
												End Site
												{
													OFFSET -0.000023 6.780014 0.000000
												}
											}
										}
									}
								}
								JOINT RightHandIndex1
								{
									OFFSET -16.029404 0.000000 0.000000
									CHANNELS 3 Xrotation Yrotation Zrotation
									JOINT RightHandIndex2
									{
										OFFSET -5.213303 0.000000 0.000000
										CHANNELS 3 Xrotation Yrotation Zrotation
										JOINT RightHandIndex3
										{
											OFFSET -6.386528 0.000000 0.000000
											CHANNELS 3 Xrotation Yrotation Zrotation
											JOINT RightHandIndex4
											{
												OFFSET -5.189026 0.000000 0.000000
												CHANNELS 3 Xrotation Yrotation Zrotation
												End Site
												{
													OFFSET 0.236702 5.183624 0.001972
												}
											}
										}
									}
								}
							}
						}
					}
				}
			}
		}
	}
	JOINT LeftUpLeg
	{
		OFFSET 14.073000 -7.904099 -1.463000
		CHANNELS 3 Xrotation Yrotation Zrotation
		JOINT LeftLeg
		{
			OFFSET -0.109806 -34.073280 4.093200
			CHANNELS 3 Xrotation Yrotation Zrotation
			JOINT LeftFoot
			{
				OFFSET 0.109806 -29.899420 -6.319000
				CHANNELS 3 Xrotation Yrotation Zrotation
				JOINT LeftToeBase
				{
					OFFSET 1.551100 -14.988700 20.535801
					CHANNELS 3 Xrotation Yrotation Zrotation
					JOINT LeftToe_End
					{
						OFFSET 0.221200 0.570800 13.248301
						CHANNELS 3 Xrotation Yrotation Zrotation
						End Site
						{
							OFFSET 0.000000 13.262435 0.000000
						}
					}
				}
			}
		}
	}
	JOINT RightUpLeg
	{
		OFFSET -13.839300 -7.904099 -1.463000
		CHANNELS 3 Xrotation Yrotation Zrotation
		JOINT RightLeg
		{
			OFFSET 0.109694 -34.073219 4.093300
			CHANNELS 3 Xrotation Yrotation Zrotation
			JOINT RightFoot
			{
				OFFSET -0.109694 -29.899384 -6.319200
				CHANNELS 3 Xrotation Yrotation Zrotation
				JOINT RightToeBase
				{
					OFFSET -1.551100 -14.988700 20.535801
					CHANNELS 3 Xrotation Yrotation Zrotation
					JOINT RightToe_End
					{
						OFFSET -0.221200 0.570900 13.248299
						CHANNELS 3 Xrotation Yrotation Zrotation
						End Site
						{
							OFFSET 0.000000 13.262440 0.000000
						}
					}
				}
			}
		}
	}
}
MOTION
Frames: 5
Frame Time: 0.033333
1.159836 85.529587 1.212397 -0.894199 1.567088 -4.664368 1.283426 -1.202510 2.321865 0.728743 0.264195 5.944687 0.710789 0.781493 5.851997 1.045308 -0.304693 -2.163986 1.584932 0.544179 -8.140493 0.000000 0.000000 -0.000000 3.295851 -13.883177 -6.354867 5.941853 3.901751 -82.495947 -0.000004 -17.811598 -0.000008 -26.923516 1.804926 -1.886454 0.339563 4.671352 -7.844287 0.387026 2.823578 -20.566219 0.034633 0.816841 -10.169833 -0.000000 -0.000001 -0.000005 18.491277 -0.461420 10.916077 1.284047 32.757608 -3.088972 2.117138 9.311169 -0.358641 -0.000001 -0.000002 0.000001 4.508129 3.324374 5.471578 2.475700 -0.774630 65.942724 0.000002 18.063714 -0.000008 -20.261094 20.725982 11.856790 18.491272 0.461425 -10.916069 0.437378 -20.134921 5.288992 2.008701 -8.430473 1.114729 -0.000000 0.000000 0.000000 0.339562 -4.671355 7.844292 0.387023 -2.823574 20.566217 -0.193118 -0.216347 13.843946 -0.000001 -0.000002 -0.000003 -17.940928 10.518944 19.172727 24.420821 7.597864 2.215550 -4.189919 4.260043 -11.868663 -0.441965 -0.000012 -0.000001 0.000000 0.000002 0.000000 0.612636 -3.858901 6.966928 13.443091 -5.384921 3.219067 -12.978947 0.756512 -4.239691 -0.548657 0.000002 0.000001 -0.000000 -0.000000 -0.000000 
1.082588 85.525566 1.245932 -0.758657 1.421951 -4.735179 1.263168 -1.263592 2.281289 0.714225 0.210522 5.908064 0.696204 0.728324 5.815612 1.059610 -0.305139 -2.097453 1.434694 0.586233 -8.151666 0.000000 -0.000000 0.000000 3.313104 -13.784619 -6.146825 5.503533 5.153057 -82.155906 0.000005 -16.533702 0.000010 -26.778662 1.628835 -1.732304 0.339563 4.671352 -7.844278 0.387029 2.823578 -20.566207 0.034630 0.816840 -10.169824 0.000001 -0.000001 0.000000 18.491284 -0.461420 10.916084 1.284041 32.757601 -3.088933 2.117142 9.311171 -0.358636 0.000000 -0.000002 -0.000002 4.502172 3.426350 5.616574 1.759429 -0.901275 65.664339 -0.000004 17.196753 0.000034 -19.690619 19.919454 11.308143 18.491276 0.461419 -10.916083 0.437375 -20.134920 5.288983 2.008705 -8.430476 1.114704 0.000000 -0.000000 -0.000000 0.339566 -4.671339 7.844267 0.387023 -2.823591 20.566234 -0.193118 -0.216336 13.843927 -0.000000 -0.000002 0.000001 -18.031602 10.474933 19.296654 24.413821 7.629627 2.263355 -4.173508 4.388851 -12.007954 -0.462657 0.000001 -0.000001 -0.000000 -0.000000 0.000000 0.528896 -3.762688 7.118373 13.293578 -5.102951 3.256209 -12.902753 0.549398 -4.430030 -0.530373 0.000000 -0.000001 0.000000 0.000000 -0.000000 
1.003919 85.519516 1.260706 -0.566520 1.373876 -4.789172 1.286837 -1.297120 2.254945 0.743909 0.185827 5.875510 0.726004 0.702901 5.783238 1.014569 -0.315862 -2.112991 1.149926 0.481321 -8.070304 0.000000 -0.000000 0.000000 3.320961 -13.743906 -6.142351 4.899453 6.451072 -81.618397 0.000001 -15.515384 -0.000018 -26.283762 1.931941 -1.461214 0.339565 4.671357 -7.844297 0.387028 2.823574 -20.566214 0.034632 0.816838 -10.169819 0.000002 -0.000001 0.000001 18.491279 -0.461421 10.916060 1.284046 32.757608 -3.088962 2.117140 9.311159 -0.358628 0.000000 -0.000002 -0.000002 4.504577 3.414508 5.622790 0.707785 -1.142058 65.464604 0.000004 15.954297 -0.000019 -19.229064 19.147619 11.212372 18.491287 0.461422 -10.916098 0.437376 -20.134916 5.288996 2.008700 -8.430470 1.114721 -0.000000 -0.000000 0.000000 0.339570 -4.671350 7.844274 0.387029 -2.823580 20.566234 -0.193129 -0.216346 13.843950 0.000002 0.000000 -0.000003 -18.206655 10.359626 19.341832 24.378006 7.655683 2.372109 -4.100475 4.501910 -12.151914 -0.466813 0.000014 0.000000 -0.000000 0.000000 -0.000000 0.370743 -3.715818 7.252813 13.169832 -4.813014 3.335442 -12.839784 0.254865 -4.662926 -0.576444 -0.000000 -0.000002 -0.000000 -0.000000 -0.000000 
0.911516 85.513908 1.262402 -0.327322 1.494268 -4.864673 1.340208 -1.366040 2.210680 0.803406 0.128712 5.834071 0.785405 0.644643 5.742245 0.950653 -0.324663 -2.093613 0.758946 0.399798 -7.940297 -0.000000 -0.000000 -0.000000 3.314877 -13.829270 -6.020503 4.082647 8.508890 -81.209337 -0.000000 -15.130737 0.000003 -25.606697 3.035756 -1.438731 0.339563 4.671349 -7.844266 0.387032 2.823582 -20.566227 0.034629 0.816835 -10.169808 -0.000000 0.000000 -0.000001 18.491281 -0.461423 10.916089 1.284038 32.757601 -3.088918 2.117148 9.311160 -0.358645 0.000001 -0.000002 -0.000002 4.500491 3.432310 5.605291 -0.625810 -1.344986 65.336647 -0.000003 14.354394 0.000000 -19.152163 18.807226 11.524132 18.491287 0.461425 -10.916093 0.437368 -20.134916 5.289017 2.008704 -8.430474 1.114715 0.000000 -0.000000 0.000001 0.339567 -4.671352 7.844283 0.387036 -2.823574 20.566207 -0.193129 -0.216349 13.843951 -0.000001 -0.000000 0.000002 -18.525411 10.235418 19.423639 24.332020 7.664702 2.474191 -3.977104 4.428956 -12.262094 -0.483059 -0.000007 -0.000004 -0.000000 -0.000000 0.000000 0.212331 -3.654214 7.467926 12.959075 -4.518580 3.410348 -12.757910 -0.214481 -4.951374 -0.571766 -0.000002 -0.000000 -0.000000 0.000000 0.000000 
0.820542 85.499977 1.248969 -0.090628 1.664956 -4.927178 1.436226 -1.405253 2.152836 0.903620 0.101005 5.783905 0.885901 0.615563 5.692381 0.841359 -0.339049 -2.066132 0.409855 0.319088 -7.754002 0.000000 0.000000 0.000000 3.307378 -13.934784 -5.830409 3.281039 10.878211 -80.867807 -0.000004 -15.540212 -0.000013 -24.878858 4.612136 -1.508594 0.339560 4.671350 -7.844254 0.387034 2.823580 -20.566241 0.034630 0.816836 -10.169812 0.000001 -0.000001 -0.000002 18.491276 -0.461426 10.916059 1.284049 32.757608 -3.088965 2.117135 9.311166 -0.358627 0.000001 0.000000 -0.000000 4.489288 3.509337 5.621893 -1.953281 -1.463615 65.152737 0.000001 12.944319 0.000003 -19.143231 17.328665 11.583717 18.491277 0.461433 -10.916076 0.437377 -20.134925 5.288991 2.008701 -8.430474 1.114709 0.000000 0.000000 0.000000 0.339567 -4.671353 7.844272 0.387026 -2.823574 20.566243 -0.193125 -0.216342 13.843947 -0.000000 0.000000 -0.000000 -18.868570 10.063215 19.457993 24.304835 7.711181 2.618225 -3.845574 4.302168 -12.383607 -0.397531 0.000002 0.000003 -0.000000 -0.000001 0.000000 0.012596 -3.637006 7.658052 12.829048 -4.207148 3.505831 -12.713307 -0.689828 -5.252021 -0.600833 0.000001 -0.000001 -0.000000 0.000000 -0.000000 
